<svg xmlns="http://www.w3.org/2000/svg" xmlns:xlink="http://www.w3.org/1999/xlink" viewBox="0 0 136.716 32.353">
  <defs>
    <style>
      .cls-1 {
        fill: url(#linear-gradient);
      }

      .cls-2 {
        fill: #3a4557;
      }
    </style>
    <linearGradient id="linear-gradient" x2="1" y2="1" gradientUnits="objectBoundingBox">
      <stop offset="0" stop-color="#436aff"/>
      <stop offset="1" stop-color="#8b83f7"/>
    </linearGradient>
  </defs>
  <g id="Articles_to_Blog" data-name="Articles to Blog" transform="translate(-1065.257 -293.397)">
    <g id="noun_article_1744714" transform="translate(1104.256 295.748)">
      <g id="Group_2540" data-name="Group 2540" transform="translate(-39 0)">
        <g id="Group_2539" data-name="Group 2539">
          <path id="Union_115" data-name="Union 115" class="cls-1" d="M-1084.974-18724.826a.521.521,0,0,1-.235-.434v-2.537h-2.527a.509.509,0,0,1-.508-.508v-23.8a.358.358,0,0,1-.009-.1v-1.016a1.524,1.524,0,0,1,1.525-1.525h29.479a1.524,1.524,0,0,1,1.525,1.525v.922a.642.642,0,0,1,.009.094v23.9a.512.512,0,0,1-.508.508h-21.755l-6.51,3a.519.519,0,0,1-.212.049A.522.522,0,0,1-1084.974-18724.826Zm-2.255-3.992h2.528a.51.51,0,0,1,.508.514v2.254l5.888-2.721a.571.571,0,0,1,.212-.047h21.359v-22.879h-30.5Zm-.009-24.4v.508h30.5v-.508a.51.51,0,0,0-.508-.51h-25.906a.507.507,0,0,1,.508.51.507.507,0,0,1-.508.508.506.506,0,0,1-.508-.508.506.506,0,0,1,.5-.51h-1.52a.507.507,0,0,1,.508.51.507.507,0,0,1-.508.508.506.506,0,0,1-.508-.508.5.5,0,0,1,.5-.51h-1.52a.507.507,0,0,1,.508.51.506.506,0,0,1-.508.508.507.507,0,0,1-.508-.508.5.5,0,0,1,.5-.51h-.518A.507.507,0,0,0-1087.238-18753.223Zm9.155,22.371a.507.507,0,0,1-.508-.508.507.507,0,0,1,.508-.51h18.8a.507.507,0,0,1,.508.51.506.506,0,0,1-.508.508Zm-6.613,0a.509.509,0,0,1-.508-.508.51.51,0,0,1,.508-.51h4.58a.51.51,0,0,1,.508.51.51.51,0,0,1-.508.508Zm12.713-2.033a.507.507,0,0,1-.508-.508.507.507,0,0,1,.508-.51h12.7a.507.507,0,0,1,.508.51.506.506,0,0,1-.508.508Zm-12.713,0a.509.509,0,0,1-.508-.508.51.51,0,0,1,.508-.51h10.68a.507.507,0,0,1,.508.51.506.506,0,0,1-.508.508Zm8.138-2.033a.507.507,0,0,1-.508-.508.507.507,0,0,1,.508-.51h17.279a.507.507,0,0,1,.508.51.506.506,0,0,1-.508.508Zm-8.138,0a.509.509,0,0,1-.508-.508.51.51,0,0,1,.508-.51h6.1a.51.51,0,0,1,.508.51.51.51,0,0,1-.508.508Zm16.78-2.033a.507.507,0,0,1-.508-.51.507.507,0,0,1,.508-.508h8.637a.506.506,0,0,1,.508.508.507.507,0,0,1-.508.51Zm-16.78,0a.51.51,0,0,1-.508-.51.509.509,0,0,1,.508-.508h14.746a.51.51,0,0,1,.508.508.51.51,0,0,1-.508.51Zm6.613-2.033a.507.507,0,0,1-.508-.51.507.507,0,0,1,.508-.508h18.8a.506.506,0,0,1,.508.508.507.507,0,0,1-.508.51Zm-6.613,0a.51.51,0,0,1-.508-.51.509.509,0,0,1,.508-.508h4.58a.51.51,0,0,1,.508.508.51.51,0,0,1-.508.51Zm12.713-2.033a.512.512,0,0,1-.508-.514.506.506,0,0,1,.508-.5h12.7a.506.506,0,0,1,.508.5.511.511,0,0,1-.508.514Zm-12.713,0a.515.515,0,0,1-.508-.514.509.509,0,0,1,.508-.5h10.68a.506.506,0,0,1,.508.5.511.511,0,0,1-.508.514Zm0-2.547a.509.509,0,0,1-.508-.5v-5.088a.508.508,0,0,1,.508-.508h25.417a.505.505,0,0,1,.508.508v5.088a.506.506,0,0,1-.508.5Zm.508-1.018h24.4v-4.066h-24.4Zm3.055-1.52a.51.51,0,0,1-.508-.514.509.509,0,0,1,.508-.508h18.3a.509.509,0,0,1,.508.508.51.51,0,0,1-.508.514Z" transform="translate(1088.256 18754.748)"/>
        </g>
      </g>
    </g>
    <g id="noun_Arrow_38670" transform="translate(1107.04 273.455) rotate(-11)">
      <path id="Path_1642" data-name="Path 1642" class="cls-2" d="M32.916,42.565c0-.009,0,.149,0,.14l-.287-5.118h0l-.023-.336a.737.737,0,0,0-.636-.783.714.714,0,0,0-.78.647l-.008.112-.313,2.54-.005-.005c-.543-.543-1.227-1.185-2.051-1.864a23.446,23.446,0,0,0-4.25-2.8,15.717,15.717,0,0,0-5.6-1.685c-.252-.023-.51-.033-.764-.048s-.482,0-.724,0h-.2l-.183.013-.365.027-.725.054a6.8,6.8,0,0,0-.715.087l-.7.107a6.182,6.182,0,0,0-.69.136l-.675.155a16.653,16.653,0,0,0-4.59,1.9,15.068,15.068,0,0,0-2.759,2.137A8.642,8.642,0,0,0,5,38.962a8.552,8.552,0,0,1,.945-.911,14.837,14.837,0,0,1,2.867-1.894,16.1,16.1,0,0,1,4.569-1.5l.657-.1a5.8,5.8,0,0,1,.668-.084c.225-.017.452-.043.679-.06s2.061.045,2.061.045c.234.02.484.023.707.054s.441.036.664.074A14.336,14.336,0,0,1,23.8,36.494a21.68,21.68,0,0,1,3.718,2.876c.662.636,1.215,1.23,1.661,1.744L26.7,40.848l-.112-.012a.71.71,0,0,0-.792.625.672.672,0,0,0,.62.779H26.4v.027l4.912,1.29a1.084,1.084,0,0,0,1.593-.911C32.911,42.619,32.916,42.592,32.916,42.565Z"/>
    </g>
    <g id="Group_2567" data-name="Group 2567" transform="translate(1166.027 -729.965)">
      <path id="Path_1658" data-name="Path 1658" class="cls-1" d="M1.123,3A1.173,1.173,0,0,0,0,4.218v26.77a1.173,1.173,0,0,0,1.123,1.218h33.7a1.173,1.173,0,0,0,1.123-1.218V4.218A1.173,1.173,0,0,0,34.822,3ZM25.835,4.123a1.123,1.123,0,1,1-1.123,1.123A1.122,1.122,0,0,1,25.835,4.123Zm3.37,0a1.123,1.123,0,1,1-1.123,1.123A1.122,1.122,0,0,1,29.205,4.123Zm3.37,0a1.123,1.123,0,1,1-1.123,1.123A1.122,1.122,0,0,1,32.575,4.123Zm-30.4,3.37H33.769a1.022,1.022,0,0,1,1.055.983V30.1a1.022,1.022,0,0,1-1.055.983H2.176A1.02,1.02,0,0,1,1.123,30.1V8.476A1.02,1.02,0,0,1,2.176,7.493ZM3.412,9.731V23.21H16.891V9.731Zm15.726,0v1.123H32.582V9.731Zm0,2.247V13.1H32.617V11.977Zm-12.4.011a1.1,1.1,0,1,1-1.1,1.1A1.1,1.1,0,0,1,6.74,11.988Zm12.4,2.236v1.123H32.617V14.224Zm-9.037,1.1a.541.541,0,0,1,.463.169l1.975,2.2L8.6,22.087H5.1a.561.561,0,0,1-.562-.562.543.543,0,0,1,.176-.386H4.675l5.048-5.63A.667.667,0,0,1,10.1,15.321Zm9.037,1.15v1.123H32.617V16.471Zm-4.57.029A.565.565,0,0,1,15,16.69l.763.906v4.493c-2.575.011-4.323,0-6.415,0l4.864-5.426v0A.546.546,0,0,1,14.568,16.5Zm4.57,2.218V19.84H32.617V18.717Zm0,2.247v1.123h7.828V20.964ZM3.37,25.457V26.58H32.575V25.457Zm0,2.247v1.123H32.575V27.7Z" transform="translate(0 1020.362)"/>
    </g>
  </g>
</svg>
