<svg xmlns="http://www.w3.org/2000/svg" xmlns:xlink="http://www.w3.org/1999/xlink" viewBox="0 0 134.512 30.197">
  <defs>
    <style>
      .cls-1 {
        fill: #3a4557;
      }

      .cls-2 {
        fill: url(#linear-gradient);
      }
    </style>
    <linearGradient id="linear-gradient" x1="0.5" x2="0.5" y2="1" gradientUnits="objectBoundingBox">
      <stop offset="0" stop-color="#436aff"/>
      <stop offset="1" stop-color="#8b83f7"/>
    </linearGradient>
  </defs>
  <g id="RSS_Feed_to_Social_Media" data-name="RSS Feed to Social Media" transform="translate(-169.238 -815.551)">
    <g id="noun_Arrow_38670" transform="translate(209.04 793.455) rotate(-11)">
      <path id="Path_1642" data-name="Path 1642" class="cls-1" d="M32.916,42.565c0-.009,0,.149,0,.14l-.287-5.118h0l-.023-.336a.737.737,0,0,0-.636-.783.714.714,0,0,0-.78.647l-.008.112-.313,2.54-.005-.005c-.543-.543-1.227-1.185-2.051-1.864a23.446,23.446,0,0,0-4.25-2.8,15.717,15.717,0,0,0-5.6-1.685c-.252-.023-.51-.033-.764-.048s-.482,0-.724,0h-.2l-.183.013-.365.027-.725.054a6.8,6.8,0,0,0-.715.087l-.7.107a6.182,6.182,0,0,0-.69.136l-.675.155a16.653,16.653,0,0,0-4.59,1.9,15.068,15.068,0,0,0-2.759,2.137A8.642,8.642,0,0,0,5,38.962a8.552,8.552,0,0,1,.945-.911,14.837,14.837,0,0,1,2.867-1.894,16.1,16.1,0,0,1,4.569-1.5l.657-.1a5.8,5.8,0,0,1,.668-.084c.225-.017.452-.043.679-.06s2.061.045,2.061.045c.234.02.484.023.707.054s.441.036.664.074A14.336,14.336,0,0,1,23.8,36.494a21.68,21.68,0,0,1,3.718,2.876c.662.636,1.215,1.23,1.661,1.744L26.7,40.848l-.112-.012a.71.71,0,0,0-.792.625.672.672,0,0,0,.62.779H26.4v.027l4.912,1.29a1.084,1.084,0,0,0,1.593-.911C32.911,42.619,32.916,42.592,32.916,42.565Z"/>
    </g>
    <g id="noun_Social_Media_1916847" data-name="noun_Social Media_1916847" transform="translate(270.383 815.748)">
      <g id="Group_2556" data-name="Group 2556" transform="translate(0 0)">
        <path id="Union_112" data-name="Union 112" class="cls-2" d="M-277.4-19245.531a.78.78,0,0,1,.784-.783.783.783,0,0,1,.784.783.783.783,0,0,1-.784.783A.78.78,0,0,1-277.4-19245.531Zm10.265-2.85a3.557,3.557,0,0,1,3.56-3.561,3.56,3.56,0,0,1,3.56,3.561,3.563,3.563,0,0,1-3.56,3.561A3.56,3.56,0,0,1-267.136-19248.381Zm-26.247-.121a3.564,3.564,0,0,1,3.56-3.561,3.561,3.561,0,0,1,3.56,3.561,3.56,3.56,0,0,1-3.56,3.561A3.563,3.563,0,0,1-293.384-19248.5Zm12.809,2.561a.784.784,0,0,1,.784-.785.787.787,0,0,1,.784.785.788.788,0,0,1-.784.787A.784.784,0,0,1-280.574-19245.941Zm6.235-.035a.784.784,0,0,1,.784-.783.787.787,0,0,1,.784.783.783.783,0,0,1-.784.783A.78.78,0,0,1-274.339-19245.977Zm3.289-.314a4.77,4.77,0,0,1-1.026-.6,1.613,1.613,0,0,1-.576-2.211l4-6.84a1.62,1.62,0,0,1,2.215-.576,4.618,4.618,0,0,1,1.026.6,4.162,4.162,0,0,1,.493,3.893,3.875,3.875,0,0,0-2.007,1.684,3.822,3.822,0,0,0-.479,2.568,4.55,4.55,0,0,1-3.08,1.535A2.908,2.908,0,0,1-271.05-19246.291Zm-14.943-1.576a3.864,3.864,0,0,0-.469-2.574,3.863,3.863,0,0,0-1.993-1.693,4.151,4.151,0,0,1,.518-3.893,4.79,4.79,0,0,1,1.03-.6,1.62,1.62,0,0,1,2.211.6l3.952,6.859a1.612,1.612,0,0,1-.59,2.209,4.857,4.857,0,0,1-1.03.6,2.86,2.86,0,0,1-.543.051A4.51,4.51,0,0,1-285.992-19247.867Zm-1.737-10.2a.78.78,0,0,1,.784-.783.783.783,0,0,1,.784.783.783.783,0,0,1-.784.783A.78.78,0,0,1-287.729-19258.064Zm20.491-.039a.787.787,0,0,1,.784-.783.784.784,0,0,1,.784.783.78.78,0,0,1-.784.783A.783.783,0,0,1-267.238-19258.1Zm-1.272-2.932a.785.785,0,0,1,.784-.789.788.788,0,0,1,.784.789.785.785,0,0,1-.784.783A.782.782,0,0,1-268.51-19261.035Zm-18.072,0a.788.788,0,0,1,.784-.789.789.789,0,0,1,.788.789.783.783,0,0,1-.788.779A.782.782,0,0,1-286.582-19261.035Zm16.123-2.408a.782.782,0,0,1,.784-.783.782.782,0,0,1,.784.783.783.783,0,0,1-.784.787A.783.783,0,0,1-270.46-19263.443Zm-14.178-.039a.787.787,0,0,1,.784-.783.784.784,0,0,1,.784.783.78.78,0,0,1-.784.783A.783.783,0,0,1-284.638-19263.482Zm4.015.494a1.621,1.621,0,0,1-1.62-1.617,4.741,4.741,0,0,1,0-1.189,4.182,4.182,0,0,1,3.115-2.395,3.844,3.844,0,0,0,2.467.885,3.874,3.874,0,0,0,2.462-.885,4.182,4.182,0,0,1,3.115,2.395,4.741,4.741,0,0,1,0,1.189,1.621,1.621,0,0,1-1.621,1.617Zm.4-8.2a3.56,3.56,0,0,1,3.56-3.561,3.563,3.563,0,0,1,3.56,3.561,3.563,3.563,0,0,1-3.56,3.559A3.559,3.559,0,0,1-280.221-19271.187Z" transform="translate(293.383 19274.748)"/>
      </g>
    </g>
    <g id="noun_RSS_241022" transform="translate(163.709 798.551)">
      <g id="Group_2618" data-name="Group 2618" transform="translate(5.529 17)">
        <path id="Path_1669" data-name="Path 1669" class="cls-2" d="M16.606,42.052a3.606,3.606,0,1,1,3.606-3.606A3.61,3.61,0,0,1,16.606,42.052Zm0-5.61a2,2,0,1,0,2,2A2.006,2.006,0,0,0,16.606,36.443Zm14.425,3.606H23.418v-.8A7.622,7.622,0,0,0,15.8,31.634H15V24.021h.8A15.244,15.244,0,0,1,31.031,39.248Zm-6.045-1.6h4.419a13.644,13.644,0,0,0-12.8-12.8v4.419A9.231,9.231,0,0,1,24.987,38.446Zm18.066,1.6H35.439v-.8A19.656,19.656,0,0,0,15.8,19.613H15V12h.8A27.279,27.279,0,0,1,43.052,39.248Zm-6.025-1.6h4.41A25.679,25.679,0,0,0,16.606,13.615v4.41A21.263,21.263,0,0,1,37.027,38.446Z" transform="translate(-13 -12)"/>
      </g>
    </g>
  </g>
</svg>
